<svg xmlns="http://www.w3.org/2000/svg" width="162" height="162" fill="none" xmlns:v="https://vecta.io/nano"><circle cx="81" cy="81" r="75" fill="#fff" stroke="#6a2d66" stroke-width="12"/><g fill="#6a2d66"><path d="M68 33h12v12H68zm14 0h12v12H82zM68 47h12v12H68zm14 0h12v12H82z"/><path fill-rule="evenodd" d="M41.799 91.682v21.682h3.074 3.074l-.003-14.393-.069-16.87-.107-2.761c-.037-.258-.026-.246.118.122a24.92 24.92 0 0 0 .459 1.056c.165.357 3.095 5.601 6.511 11.653l9.078 16.078 2.867 5.075 3.482.022 3.482.021V91.682 70h-3.074-3.074l.002 14.312.069 16.261.114 2.437.047.487-.604-1.103-9.351-16.748L49.148 70h-3.675-3.674v21.682zm40.068 0v21.682h10.596 10.596v-3.086-3.085h-7.413-7.413v-6.334-6.334h6.437 6.437v-3.086-3.086h-6.437-6.437v-6.05-6.05h6.979 6.979v-3.126V70H92.028 81.867v21.682zm23.288-18.555v3.126h5.388 5.388v18.555 18.555h3.147 3.146V94.808 76.253h5.388H133v-3.126V70h-13.922-13.923v3.126zm-74.379 32.776c-.156.041-.484.185-.729.321s-.61.408-.812.606a4.74 4.74 0 0 0-.631.808c-.146.246-.329.656-.406.91s-.162.705-.186 1.002c-.025.305-.007.785.042 1.102.048.308.185.792.305 1.075.136.319.388.705.664 1.017a4.56 4.56 0 0 0 .887.763c.243.143.666.319.94.392.364.096.694.12 1.222.089.46-.027.879-.104 1.151-.212a4.27 4.27 0 0 0 .769-.415c.187-.135.501-.436.698-.669s.441-.589.544-.79a5.45 5.45 0 0 0 .308-.771c.081-.273.12-.672.119-1.218-.001-.608-.039-.933-.151-1.293a5.3 5.3 0 0 0-.372-.871c-.123-.214-.418-.593-.657-.841s-.586-.537-.771-.642-.514-.251-.73-.323c-.263-.088-.646-.128-1.157-.123-.42.005-.892.042-1.047.083z"/></g></svg>